Coordinates
version=1
nRows=5
nColumns=40
inDegrees=yes

Units are S.I. units (second, meters, Newtons, ...)
If the header above contains a line with 'inDegrees', this indicates whether rotational values are in degrees (yes) or radians (no).

endheader
time	pelvis_tilt	pelvis_list	pelvis_rotation	pelvis_tx	pelvis_ty	pelvis_tz	hip_flexion_r	hip_adduction_r	hip_rotation_r	knee_angle_r	knee_angle_r_beta	ankle_angle_r	subtalar_angle_r	mtp_angle_r	hip_flexion_l	hip_adduction_l	hip_rotation_l	knee_angle_l	knee_angle_l_beta	ankle_angle_l	subtalar_angle_l	mtp_angle_l	lumbar_extension	lumbar_bending	lumbar_rotation	arm_flex_r	arm_add_r	arm_rot_r	elbow_flex_r	pro_sup_r	wrist_flex_r	wrist_dev_r	arm_flex_l	arm_add_l	arm_rot_l	elbow_flex_l	pro_sup_l	wrist_flex_l	wrist_dev_l
      0.87000000	     -0.24001923	      9.56544361	    -89.49538193	      0.22733085	      0.94998970	      0.21135013	     -1.62155094	      4.20587150	     -1.09780908	      6.97998907	      0.12182379	      8.85525635	      0.00000000	      0.00000000	     30.74898760	     -0.13986521	      0.11332274	      2.76873342	      0.04832351	      1.16512878	      0.00000000	      0.00000000	      3.45707997	     -0.71271832	      4.68022978	      0.00000000	      0.00000000	      0.00000000	      0.00000000	      0.00000000	      0.00000000	      0.00000000	      0.00000000	      0.00000000	      0.00000000	      0.00000000	      0.00000000	      0.00000000	      0.00000000
      0.88000000	     -0.26363550	      9.70964868	    -89.54544363	      0.22853987	      0.94799462	      0.22090579	     -2.03197707	      4.15169218	     -1.12956619	      7.13872206	      0.12459420	      9.12935762	     -0.00000000	      0.00000000	     30.87864728	     -0.02522554	     -0.04564584	      2.66404440	      0.04649635	      1.23859179	     -0.00000000	      0.00000000	      3.74112065	     -0.68786112	      4.72928639	     -0.00000000	     -0.00000000	     -0.00000000	      0.00000000	      0.00000000	      0.00000000	      0.00000000	     -0.00000000	     -0.00000000	      0.00000000	      0.00000000	      0.00000000	      0.00000000	      0.00000000
      0.89000000	     -0.09125606	      9.65434380	    -89.61543542	      0.22982785	      0.94631255	      0.23053876	     -2.56067681	      3.88836058	     -0.96808271	      7.55156965	      0.13179975	      9.88849234	      0.00000000	      0.00000000	     30.88393949	      0.27434542	     -0.25881481	      3.02630041	      0.05281891	      0.97496398	      0.00000000	      0.00000000	      3.75959756	     -0.90564988	      4.88896397	      0.00000000	      0.00000000	      0.00000000	      0.00000000	      0.00000000	      0.00000000	      0.00000000	      0.00000000	      0.00000000	      0.00000000	      0.00000000	      0.00000000	      0.00000000	      0.00000000
      0.90000000	     -0.13984338	      9.77707053	    -89.62708521	      0.23119307	      0.94447315	      0.24030354	     -2.91763512	      3.85155824	     -1.08208199	      7.85556570	      0.13710549	      9.81425935	      0.00000000	      0.00000000	     31.00790284	      0.37878298	     -0.14992426	      3.45376343	      0.06027954	      0.81516693	     -0.00000000	     -0.00000000	      4.03974621	     -0.83330262	      4.77851886	      0.00000000	      0.00000000	     -0.00000000	      0.00000000	      0.00000000	      0.00000000	     -0.00000000	      0.00000000	     -0.00000000	     -0.00000000	      0.00000000	      0.00000000	      0.00000000	      0.00000000
      0.91000000	      0.17639530	      9.58395109	    -89.67148769	      0.23266326	      0.94307973	      0.25008732	     -3.45096050	      3.41334856	     -1.15708963	      8.59095409	      0.14994043	     10.93346230	      0.00000000	      0.00000000	     31.16903256	      0.77378750	     -1.25093861	      4.78582338	      0.08352838	     -0.17220781	      0.00000000	      0.00000000	      3.88771511	     -1.22469764	      4.90426793	      0.00000000	      0.00000000	      0.00000000	      0.00000000	      0.00000000	      0.00000000	      0.00000000	      0.00000000	      0.00000000	      0.00000000	      0.00000000	      0.00000000	      0.00000000	      0.00000000
